<svg width="62" height="62" viewBox="0 0 62 62" fill="none" xmlns="http://www.w3.org/2000/svg">
<circle cx="31" cy="31" r="31" fill="#FFF6DD"/>
<path fill-rule="evenodd" clip-rule="evenodd" d="M38.4075 18C40.4189 18 42.3539 18.795 43.7773 20.2214C45.2022 21.6448 45.9987 23.5648 45.9987 25.5747V37.4242C45.9987 41.609 42.5938 44.9988 38.4075 44.9988H23.5897C19.4034 44.9988 16 41.609 16 37.4242V25.5747C16 21.3899 19.3884 18 23.5897 18H38.4075ZM40.7932 27.8094L40.9132 27.6894C41.2717 27.2545 41.2717 26.6245 40.8967 26.1895C40.6882 25.966 40.4017 25.8295 40.1032 25.7995C39.7882 25.783 39.4882 25.8895 39.2617 26.0995L32.4985 31.4993C31.6286 32.2207 30.3821 32.2207 29.4987 31.4993L22.749 26.0995C22.2825 25.7545 21.6375 25.7995 21.249 26.2045C20.844 26.6095 20.799 27.2545 21.1425 27.7044L21.339 27.8994L28.1637 33.2242C29.0037 33.8842 30.0221 34.2441 31.0886 34.2441C32.1521 34.2441 33.1885 33.8842 34.027 33.2242L40.7932 27.8094Z" fill="#FFCB46"/>
</svg>
