<svg width="62" height="62" viewBox="0 0 62 62" fill="none" xmlns="http://www.w3.org/2000/svg">
<circle cx="31" cy="31" r="31" fill="#FFF0E9"/>
<path fill-rule="evenodd" clip-rule="evenodd" d="M44.6438 33.528C45.216 33.832 45.6575 34.312 45.9682 34.792C46.5732 35.784 46.5242 37 45.9355 38.072L44.7909 39.992C44.1859 41.016 43.0577 41.656 41.8967 41.656C41.3244 41.656 40.6867 41.496 40.1635 41.176C39.7384 40.904 39.2478 40.808 38.7246 40.808C37.1058 40.808 35.7486 42.136 35.6996 43.72C35.6996 45.56 34.1953 47 32.3149 47H30.0911C28.1943 47 26.69 45.56 26.69 43.72C26.6573 42.136 25.3001 40.808 23.6814 40.808C23.1418 40.808 22.6512 40.904 22.2424 41.176C21.7192 41.496 21.0652 41.656 20.5092 41.656C19.3319 41.656 18.2037 41.016 17.5987 39.992L16.4704 38.072C15.8654 37.032 15.8327 35.784 16.4377 34.792C16.6994 34.312 17.1899 33.832 17.7458 33.528C18.2037 33.304 18.498 32.936 18.776 32.504C19.5935 31.128 19.103 29.32 17.7131 28.504C16.0944 27.592 15.5711 25.56 16.5031 23.976L17.5987 22.088C18.547 20.504 20.5746 19.944 22.2097 20.872C23.6323 21.64 25.48 21.128 26.3139 19.768C26.5755 19.32 26.7227 18.84 26.69 18.36C26.6573 17.736 26.8372 17.144 27.1478 16.664C27.7528 15.672 28.8484 15.032 30.042 15H32.3476C33.5576 15 34.6531 15.672 35.2581 16.664C35.5524 17.144 35.7486 17.736 35.6996 18.36C35.6669 18.84 35.814 19.32 36.0757 19.768C36.9096 21.128 38.7573 21.64 40.1962 20.872C41.815 19.944 43.8589 20.504 44.7909 22.088L45.8865 23.976C46.8348 25.56 46.3116 27.592 44.6765 28.504C43.2866 29.32 42.7961 31.128 43.63 32.504C43.8916 32.936 44.1859 33.304 44.6438 33.528ZM26.5742 31.0155C26.5742 33.5275 28.6508 35.5275 31.218 35.5275C33.7852 35.5275 35.8127 33.5275 35.8127 31.0155C35.8127 28.5035 33.7852 26.4875 31.218 26.4875C28.6508 26.4875 26.5742 28.5035 26.5742 31.0155Z" fill="#FF8345"/>
</svg>
