<svg width="62" height="62" viewBox="0 0 62 62" fill="none" xmlns="http://www.w3.org/2000/svg">
<circle cx="31" cy="31" r="31" fill="#EDFFFF"/>
<path d="M40.8669 34.8067C39.7922 34.5755 38.942 35.0745 38.1892 35.5103C37.4182 35.9594 35.9522 37.1486 35.1119 36.8442C30.8097 35.0728 26.7634 31.3073 25.0118 26.9878C24.7031 26.1296 25.8868 24.6543 26.3325 23.8742C26.7651 23.1191 27.2537 22.2608 27.0309 21.1781C26.8294 20.2051 24.2243 16.8902 23.3032 15.9837C22.6956 15.385 22.0732 15.0557 21.4344 15.0024C19.0323 14.8993 16.3496 18.1044 15.8791 18.8711C14.7004 20.5061 14.707 22.6816 15.8989 25.3196C18.7715 32.405 29.636 43.098 36.748 46.0786C38.0604 46.6923 39.2606 47 40.3386 47C41.3936 47 42.3329 46.7056 43.1402 46.1218C43.7494 45.7709 47.0858 42.955 46.9983 40.4884C46.9455 39.8597 46.617 39.231 46.0259 38.6222C45.1262 37.6925 41.8327 35.0096 40.8669 34.8067Z" fill="#61FFFF"/>
</svg>
