<svg width="50" height="40" viewBox="0 0 50 40" fill="none" xmlns="http://www.w3.org/2000/svg">
<path d="M44.3475 0H5.45256C4.00645 0 2.61957 0.574463 1.59702 1.59702C0.574464 2.61957 0 4.00645 0 5.45256V33.8058C0 35.252 0.574464 36.6388 1.59702 37.6614C2.61957 38.6839 4.00645 39.2584 5.45256 39.2584H44.3475C45.7936 39.2584 47.1804 38.6839 48.203 37.6614C49.2255 36.6388 49.8 35.252 49.8 33.8058V5.45256C49.8 4.00645 49.2255 2.61957 48.203 1.59702C47.1804 0.574463 45.7936 0 44.3475 0ZM1.21168 34.1088L12.4803 24.4153C12.7864 24.147 13.1737 23.9893 13.5802 23.9673C13.9866 23.9453 14.3887 24.0604 14.7219 24.2942L23.5672 30.4737L15.4489 38.0467H5.45256C4.37837 38.0495 3.34317 37.6445 2.55602 36.9135C1.76886 36.1826 1.2884 35.1802 1.21168 34.1088ZM44.3475 38.0467H17.2664L31.9277 24.3547C32.2105 24.0959 32.5678 23.9331 32.9486 23.8896C33.3295 23.846 33.7143 23.924 34.0482 24.1124L48.5883 32.0489V33.8058C48.5883 34.9306 48.1415 36.0093 47.3462 36.8046C46.5509 37.5999 45.4722 38.0467 44.3475 38.0467ZM48.5883 30.6555L34.5934 23.0219C34.0372 22.7153 33.3987 22.5913 32.7681 22.6674C32.1376 22.7435 31.5469 23.0158 31.0796 23.446L24.4759 29.6256L15.3883 23.2642C14.8388 22.8819 14.1781 22.6924 13.5095 22.7253C12.8409 22.7582 12.202 23.0116 11.6927 23.446L1.21168 32.5336V5.45256C1.21168 4.32781 1.65848 3.24912 2.4538 2.4538C3.24912 1.65848 4.32781 1.21168 5.45256 1.21168H44.3475C45.4722 1.21168 46.5509 1.65848 47.3462 2.4538C48.1415 3.24912 48.5883 4.32781 48.5883 5.45256V30.6555Z" fill="#157292"/>
<path d="M22.7192 6.24025C21.3148 6.22824 19.9384 6.63374 18.7648 7.40528C17.5912 8.17682 16.6732 9.27963 16.1274 10.5737C15.5816 11.8679 15.4326 13.295 15.6992 14.6739C15.9658 16.0529 16.6361 17.3216 17.625 18.319C18.6138 19.3163 19.8767 19.9975 21.2533 20.2759C22.63 20.5544 24.0583 20.4176 25.357 19.8829C26.6558 19.3483 27.7664 18.4398 28.548 17.2729C29.3296 16.1059 29.7469 14.7331 29.747 13.3286C29.747 11.4591 29.0085 9.66526 27.6923 8.33767C26.3761 7.01008 24.5886 6.25623 22.7192 6.24025ZM22.7192 19.2052C21.5544 19.2172 20.4123 18.8828 19.438 18.2444C18.4636 17.606 17.701 16.6925 17.2469 15.6198C16.7928 14.5471 16.6678 13.3636 16.8876 12.2197C17.1075 11.0758 17.6623 10.023 18.4817 9.19506C19.3011 8.36712 20.3481 7.80138 21.4897 7.56967C22.6313 7.33797 23.816 7.45075 24.8933 7.89371C25.9707 8.33666 26.8921 9.0898 27.5405 10.0575C28.189 11.0252 28.5352 12.1637 28.5353 13.3286C28.5354 14.8767 27.9245 16.3624 26.8355 17.4627C25.7465 18.5631 24.2673 19.1893 22.7192 19.2052Z" fill="#157292"/>
</svg>
