<svg width="51" height="51" viewBox="0 0 51 51" fill="none" xmlns="http://www.w3.org/2000/svg">
<path d="M25.9604 50.9275C26.0959 50.9225 26.2314 50.9171 26.3666 50.9099C26.4806 50.9039 26.5943 50.8966 26.708 50.8891C26.8127 50.8821 26.9173 50.8745 27.0219 50.8663C27.1534 50.856 27.2847 50.845 27.4157 50.8326C27.4921 50.8255 27.5682 50.8172 27.6445 50.8092C28.3761 50.7334 29.1005 50.6261 29.8172 50.4869C29.8682 50.477 29.9193 50.4675 29.9702 50.4574C30.1169 50.428 30.2632 50.3969 30.4093 50.3648C30.4886 50.3475 30.5677 50.3297 30.6468 50.3115C30.7724 50.2827 30.898 50.2532 31.0231 50.2224C31.1457 50.1923 31.2676 50.1604 31.3896 50.1285C31.4736 50.1064 31.5579 50.0853 31.6416 50.0623C35.7798 48.9323 39.5729 46.7433 42.6884 43.6314C43.0332 43.2869 43.3654 42.9333 43.6875 42.5727C43.7011 42.5574 43.7145 42.5421 43.728 42.5269C43.872 42.3648 44.0136 42.2013 44.1529 42.0362C44.1644 42.0226 44.1759 42.0091 44.1873 41.9954C47.9582 37.508 50.0132 31.8954 50.0132 25.9661C50.0132 20.0351 47.957 14.4213 44.1843 9.93328C44.1749 9.92209 44.1654 9.9109 44.156 9.89971C44.0143 9.73166 43.8702 9.5653 43.7237 9.40053C43.7125 9.38786 43.7012 9.37509 43.69 9.36242C43.367 9.00078 43.034 8.64601 42.6882 8.30062C39.5723 5.18837 35.7787 2.99932 31.6399 1.86933C31.5585 1.84695 31.4765 1.82647 31.3949 1.80494C31.2705 1.77232 31.1462 1.73992 31.0212 1.7092C30.8976 1.67869 30.7736 1.64977 30.6495 1.62127C30.5686 1.60269 30.4877 1.58443 30.4065 1.5667C30.2618 1.53492 30.1169 1.5041 29.9714 1.47497C29.9191 1.46441 29.8664 1.4547 29.8138 1.44446C29.2501 1.33521 28.6816 1.24432 28.1087 1.17413C28.1064 1.17392 28.1043 1.1736 28.1022 1.17328C27.9504 1.15471 27.798 1.13877 27.6456 1.12293C27.5687 1.11491 27.492 1.10668 27.4149 1.09929C27.2841 1.08694 27.1532 1.07596 27.0219 1.06572C26.9172 1.05738 26.8124 1.04989 26.7075 1.04292C26.5939 1.03543 26.4803 1.02814 26.3663 1.02212C26.2311 1.01495 26.0956 1.00956 25.9598 1.0045C25.8709 1.00122 25.7823 0.997108 25.6933 0.994786C25.4644 0.988663 25.2353 0.984863 25.0055 0.984863C24.7757 0.984863 24.5464 0.988663 24.3176 0.994786C24.2288 0.997108 24.1404 1.00122 24.0519 1.0045C23.9158 1.00956 23.7799 1.01495 23.6441 1.02212C23.5308 1.02814 23.4178 1.03532 23.3047 1.04281C23.1989 1.04989 23.0931 1.05749 22.9875 1.06593C22.8574 1.07617 22.7274 1.08704 22.5978 1.09918C22.5189 1.10668 22.4401 1.11512 22.3614 1.12335C22.2111 1.13898 22.0607 1.15471 21.9111 1.17297C21.9025 1.17402 21.8941 1.17529 21.8855 1.17634C21.3223 1.2457 20.7636 1.335 20.2092 1.44224C20.1509 1.45343 20.0924 1.46441 20.0343 1.47602C19.8936 1.50431 19.7533 1.53408 19.6131 1.5648C19.5259 1.5838 19.4389 1.60343 19.3519 1.62349C19.2335 1.65072 19.1153 1.67838 18.9974 1.7074C18.8628 1.74044 18.7287 1.77528 18.5948 1.81053C18.5225 1.82964 18.4499 1.84779 18.3777 1.86753C14.2367 2.997 10.441 5.18657 7.32389 8.30052C6.97776 8.64632 6.64441 9.00142 6.3212 9.36348C6.31075 9.3752 6.3004 9.38702 6.28995 9.39874C6.14154 9.56562 5.99566 9.7342 5.85221 9.90436C5.84534 9.91259 5.83838 9.92072 5.83141 9.92895C2.0571 14.4175 0 20.033 0 25.9658C0 31.901 2.05868 37.5187 5.83595 42.008C5.83954 42.0124 5.84323 42.0167 5.84693 42.021C5.99397 42.1955 6.14354 42.3684 6.29576 42.5395C6.30294 42.5477 6.31022 42.5558 6.3175 42.5639C6.64188 42.9274 6.97639 43.2839 7.32389 43.6311C10.441 46.7449 14.2366 48.9346 18.3777 50.064C18.4497 50.0838 18.5221 50.1018 18.5944 50.1209C18.7285 50.1561 18.8627 50.1911 18.9975 50.2242C19.1152 50.2531 19.2333 50.2807 19.3515 50.308C19.4388 50.328 19.5261 50.3477 19.6135 50.3668C19.7533 50.3975 19.8933 50.4272 20.0337 50.4555C20.0924 50.4672 20.1514 50.4783 20.2102 50.4896C20.7628 50.5964 21.3197 50.6854 21.8812 50.7546C21.8913 50.756 21.9015 50.7574 21.9117 50.7587C22.0609 50.7769 22.2105 50.7925 22.3602 50.8082C22.4396 50.8164 22.519 50.8249 22.5985 50.8324C22.7278 50.8446 22.8574 50.8555 22.9871 50.8657C23.0931 50.874 23.1993 50.8816 23.3055 50.8888C23.4182 50.8962 23.531 50.9035 23.644 50.9094C23.78 50.9166 23.9162 50.922 24.0526 50.9271C24.141 50.9304 24.2291 50.9344 24.3177 50.9368C24.5465 50.9431 24.7758 50.9467 25.0056 50.9467C25.0058 50.9467 25.0059 50.9467 25.0061 50.9467C25.2357 50.9467 25.4647 50.9429 25.6932 50.9368C25.7825 50.9348 25.8714 50.9307 25.9604 50.9275ZM1.49068 26.705H13.3749C13.4121 29.5255 13.662 32.2671 14.1083 34.8385C13.9742 34.8827 13.8397 34.9261 13.7065 34.9721C10.6314 36.0326 7.8769 37.5423 5.68331 39.3596C3.16566 35.7461 1.63656 31.3969 1.49068 26.705ZM5.68331 12.5725C7.8769 14.39 10.6313 15.8996 13.7064 16.9601C13.8397 17.0061 13.9742 17.0495 14.1083 17.0938C13.6619 19.665 13.4121 22.4067 13.3749 25.2271H1.49068C1.63656 20.5354 3.16566 16.1862 5.68331 12.5725ZM20.4564 2.90548C19.0256 4.1823 17.7252 6.07442 16.6256 8.5205C15.6846 10.614 14.9336 13.0145 14.3907 15.6178C11.3859 14.6067 8.70152 13.1717 6.56525 11.3865C9.97929 7.0864 14.8657 4.00401 20.4564 2.90548ZM48.5227 25.2272H36.6343C36.5971 22.4072 36.3472 19.6659 35.9009 17.0948C36.0359 17.0503 36.1714 17.0065 36.3057 16.9602C39.3803 15.8998 42.1351 14.3901 44.3297 12.5724C46.8475 16.186 48.3768 20.5352 48.5227 25.2272ZM44.3296 39.3597C42.1351 37.542 39.3803 36.0324 36.3057 34.9721C36.1714 34.9259 36.0359 34.882 35.9008 34.8375C36.3472 32.2665 36.5971 29.5251 36.6342 26.7051H48.5226C48.3768 31.3969 46.8476 35.7461 44.3296 39.3597ZM17.9736 42.8057C17.0584 40.7699 16.3307 38.425 15.8078 35.8758C18.4647 35.1233 21.3316 34.6915 24.2667 34.6294V49.402C21.9537 48.9853 19.6942 46.6336 17.9736 42.8057ZM25.7445 26.705H35.1564C35.1203 29.3761 34.8885 31.9695 34.4765 34.4037C31.7056 33.6301 28.7795 33.2089 25.7445 33.1503V26.705ZM25.7445 25.2272V18.782C28.7795 18.7235 31.7056 18.3023 34.4765 17.5286C34.8885 19.9627 35.1204 22.556 35.1564 25.2272H25.7445ZM25.7445 17.303V2.53022C28.056 2.94707 30.3146 5.29889 32.0352 9.1265C32.9506 11.1628 33.6784 13.5079 34.2013 16.0572C31.5447 16.8093 28.6787 17.2408 25.7445 17.303ZM24.2667 17.303C21.3315 17.2408 18.4647 16.809 15.8077 16.0564C16.3305 13.5072 17.0583 11.1623 17.9735 9.1264C19.6942 5.29846 21.9536 2.94675 24.2667 2.53001V17.303ZM24.2667 18.782V25.2272H14.8528C14.8889 22.5557 15.1207 19.962 15.5326 17.5278C18.3043 18.302 21.2312 18.7235 24.2667 18.782ZM24.2667 26.705V33.1504C21.2312 33.209 18.3043 33.6305 15.5327 34.4046C15.1207 31.9703 14.8889 29.3765 14.8528 26.7051H24.2667V26.705ZM25.7445 34.6294C28.6787 34.6915 31.5447 35.1231 34.2012 35.8752C33.6784 38.4245 32.9505 40.7694 32.0351 42.8057C30.3145 46.6334 28.056 48.9851 25.7444 49.4019V34.6294H25.7445ZM33.383 43.4117C34.3243 41.3178 35.0753 38.9172 35.6183 36.3139C38.6244 37.325 41.3101 38.7603 43.4477 40.5459C40.0326 44.8467 35.1448 47.9292 29.5524 49.0274C30.9831 47.7505 32.2833 45.858 33.383 43.4117ZM43.4476 11.3864C41.3101 13.1721 38.6244 14.6074 35.6183 15.6184C35.0753 13.0151 34.3243 10.6144 33.383 8.5205C32.2833 6.0741 30.9831 4.18167 29.5524 2.90485C35.1447 4.00296 40.0326 7.08555 43.4476 11.3864ZM14.3907 36.3145C14.9337 38.9176 15.6846 41.318 16.6256 43.4116C17.7252 45.8577 19.0254 47.7498 20.4563 49.0267C14.8657 47.928 9.97939 44.8457 6.56525 40.5457C8.70141 38.7606 11.3858 37.3255 14.3907 36.3145Z" fill="#0056D6"/>
</svg>
