<svg width="185" height="178" viewBox="0 0 185 178" fill="none" xmlns="http://www.w3.org/2000/svg">
<g opacity="0.2">
<circle cx="3.77117" cy="3.77117" r="3.77117" fill="#0056D6"/>
<circle cx="39.2199" cy="3.77117" r="3.77117" fill="#0056D6"/>
<circle cx="74.6694" cy="3.77117" r="3.77117" fill="#0056D6"/>
<circle cx="110.118" cy="3.77117" r="3.77117" fill="#0056D6"/>
<circle cx="145.568" cy="3.77117" r="3.77117" fill="#0056D6"/>
<circle cx="181.016" cy="3.77117" r="3.77117" fill="#0056D6"/>
<circle cx="3.77117" cy="37.7116" r="3.77117" fill="#0056D6"/>
<circle cx="39.2199" cy="37.7116" r="3.77117" fill="#0056D6"/>
<circle cx="74.6694" cy="37.7116" r="3.77117" fill="#0056D6"/>
<circle cx="110.118" cy="37.7116" r="3.77117" fill="#0056D6"/>
<circle cx="145.568" cy="37.7116" r="3.77117" fill="#0056D6"/>
<circle cx="181.016" cy="37.7116" r="3.77117" fill="#0056D6"/>
<circle cx="3.77117" cy="71.6523" r="3.77117" fill="#0056D6"/>
<circle cx="39.2199" cy="71.6523" r="3.77117" fill="#0056D6"/>
<circle cx="74.6694" cy="71.6523" r="3.77117" fill="#0056D6"/>
<circle cx="110.118" cy="71.6523" r="3.77117" fill="#0056D6"/>
<circle cx="145.568" cy="71.6523" r="3.77117" fill="#0056D6"/>
<circle cx="181.016" cy="71.6523" r="3.77117" fill="#0056D6"/>
<circle cx="3.77117" cy="105.593" r="3.77117" fill="#0056D6"/>
<circle cx="39.2199" cy="105.593" r="3.77117" fill="#0056D6"/>
<circle cx="74.6694" cy="105.593" r="3.77117" fill="#0056D6"/>
<circle cx="110.118" cy="105.593" r="3.77117" fill="#0056D6"/>
<circle cx="145.568" cy="105.593" r="3.77117" fill="#0056D6"/>
<circle cx="181.016" cy="105.593" r="3.77117" fill="#0056D6"/>
<circle cx="3.77117" cy="139.533" r="3.77117" fill="#0056D6"/>
<circle cx="39.2199" cy="139.533" r="3.77117" fill="#0056D6"/>
<circle cx="74.6694" cy="139.533" r="3.77117" fill="#0056D6"/>
<circle cx="110.118" cy="139.533" r="3.77117" fill="#0056D6"/>
<circle cx="145.568" cy="139.533" r="3.77117" fill="#0056D6"/>
<circle cx="181.016" cy="139.533" r="3.77117" fill="#0056D6"/>
<circle cx="3.77117" cy="173.474" r="3.77117" fill="#0056D6"/>
<circle cx="39.2199" cy="173.474" r="3.77117" fill="#0056D6"/>
<circle cx="74.6694" cy="173.474" r="3.77117" fill="#0056D6"/>
<circle cx="110.118" cy="173.474" r="3.77117" fill="#0056D6"/>
<circle cx="145.568" cy="173.474" r="3.77117" fill="#0056D6"/>
<circle cx="181.016" cy="173.474" r="3.77117" fill="#0056D6"/>
</g>
</svg>
