<svg width="48" height="46" viewBox="0 0 48 46" fill="none" xmlns="http://www.w3.org/2000/svg">
<path d="M0 0V45.6737H47.64V0H0ZM46.411 1.22898V7.89248H1.22898V1.22898H46.411ZM1.22898 44.4447V9.12146H46.411V44.4447H1.22898Z" fill="#34E8BB"/>
<path d="M33.2021 15.0561H39.6702L21.3081 34.3326L14.384 28.4016L6.08105 37.7369L7.00033 38.5541L14.5008 30.1197L21.3941 36.0237L40.4899 15.9779V22.3341H41.7189V13.8271H33.2021V15.0561Z" fill="#34E8BB"/>
<path d="M39.1293 3.63916H19.376V5.48262H39.1293V3.63916Z" fill="#34E8BB"/>
<path d="M7.45772 3.63916H5.61426V5.48262H7.45772V3.63916Z" fill="#34E8BB"/>
<path d="M11.4089 3.63916H9.56543V5.48262H11.4089V3.63916Z" fill="#34E8BB"/>
</svg>
