<svg width="84" height="84" viewBox="0 0 84 84" fill="none" xmlns="http://www.w3.org/2000/svg">
<g clip-path="url(#clip0_17_418)">
<path d="M34.617 22.9947V33.1761L35.3379 33.8969C35.5683 34.1271 41.1039 39.5394 51.8436 39.5394C62.5833 39.5394 68.1189 34.1271 68.3493 33.8968L69.0702 33.1759V22.9945L73.992 21.0258V34.6175H78.9139V19.057L83.0793 17.3909L51.8436 4.89661L20.6079 17.3909L34.617 22.9947ZM64.1483 31.0096C62.5817 32.1795 58.5159 34.6175 51.8436 34.6175C45.1713 34.6175 41.1055 32.1795 39.5389 31.0096V24.9633L51.8436 29.8851L64.1483 24.9633V31.0096ZM69.8267 17.3909L51.8436 24.5841L33.8605 17.3909L51.8436 10.1978L69.8267 17.3909Z" fill="#5B5B5B"/>
<path d="M18.9664 21.4277L15.4862 17.9475L12.3375 21.0961C12.8835 12.0855 20.3857 4.92188 29.5311 4.92188V0C17.6521 0 7.92879 9.40029 7.40609 21.1526L4.2008 17.9475L0.720703 21.4277L9.84356 30.5506L18.9664 21.4277Z" fill="#0056D6"/>
<path d="M83.2791 57.6506L74.1562 48.5277L65.0334 57.6506L68.5136 61.1308L71.6953 57.9492V61.8517C71.6953 71.3505 63.9675 79.0783 54.4688 79.0783V84.0002C66.6814 84.0002 76.6172 74.0644 76.6172 61.8517V57.9492L79.799 61.131L83.2791 57.6506Z" fill="#0056D6"/>
<path d="M59.2264 69.0706V53.5101L63.3918 51.8441L32.1561 39.3497L0.92041 51.8441L14.9295 57.4478V67.6292L15.6504 68.3501C15.8808 68.5803 21.4164 73.9925 32.1561 73.9925C42.8958 73.9925 48.4314 68.5802 48.6618 68.3499L49.3827 67.629V57.4476L54.3045 55.4789V69.0706H59.2264ZM44.4608 65.4627C42.8942 66.6327 38.8284 69.0706 32.1561 69.0706C25.4838 69.0706 21.4181 66.6327 19.8514 65.4627V59.4164L32.1561 64.3383L44.4608 59.4164V65.4627ZM32.1561 59.0372L14.1731 51.8441L32.1561 44.6509L50.1392 51.8441L32.1561 59.0372Z" fill="#5B5B5B"/>
</g>
<defs>
<clipPath id="clip0_17_418">
<rect width="84" height="84" fill="white"/>
</clipPath>
</defs>
</svg>
