<svg width="5" height="22" viewBox="0 0 5 22" fill="none" xmlns="http://www.w3.org/2000/svg">
<path fill-rule="evenodd" clip-rule="evenodd" d="M2.45283 0C3.86792 0 5 1.13208 5 2.45283C5 3.86792 3.86792 5 2.45283 5C1.13208 5 0 3.86792 0 2.45283C0 1.13208 1.13208 0 2.45283 0Z" fill="#343951"/>
<path fill-rule="evenodd" clip-rule="evenodd" d="M2.45283 8.35205C3.86792 8.35205 5 9.38979 5 10.8049C5 12.22 3.86792 13.3521 2.45283 13.3521C1.13208 13.3521 0 12.22 0 10.8049C0 9.38979 1.13208 8.35205 2.45283 8.35205Z" fill="#343951"/>
<path fill-rule="evenodd" clip-rule="evenodd" d="M2.45283 16.6021C3.86792 16.6021 5 17.7341 5 19.1492C5 20.47 3.86792 21.6021 2.45283 21.6021C1.13208 21.6021 0 20.47 0 19.1492C0 17.7341 1.13208 16.6021 2.45283 16.6021Z" fill="#343951"/>
</svg>
