<svg width="120" height="16" viewBox="0 0 120 16" fill="none" xmlns="http://www.w3.org/2000/svg">
<path d="M1.80002 15.12C1.41335 15.12 1.10002 15 0.860019 14.76C0.633353 14.52 0.52002 14.2067 0.52002 13.82V2.12C0.52002 1.73333 0.626686 1.43333 0.84002 1.22C1.06669 1.00667 1.37335 0.900001 1.76002 0.900001H8.78002C9.59335 0.900001 10 1.24667 10 1.94C10 2.62 9.59335 2.96 8.78002 2.96H3.06002V6.8H8.38002C9.19335 6.8 9.60002 7.14667 9.60002 7.84C9.60002 8.52 9.19335 8.86 8.38002 8.86H3.06002V13.82C3.06002 14.2067 2.94669 14.52 2.72002 14.76C2.49335 15 2.18669 15.12 1.80002 15.12Z" fill="#0056D6"/>
<path d="M16.8928 5.02C17.2395 4.99333 17.5128 5.06667 17.7128 5.24C17.9128 5.41334 18.0128 5.67334 18.0128 6.02C18.0128 6.38 17.9262 6.64667 17.7528 6.82C17.5795 6.99334 17.2662 7.10667 16.8128 7.16L16.2128 7.22C15.4262 7.3 14.8462 7.56667 14.4728 8.02C14.1128 8.47333 13.9328 9.04 13.9328 9.72V13.92C13.9328 14.3067 13.8128 14.6067 13.5728 14.82C13.3328 15.02 13.0328 15.12 12.6728 15.12C12.3128 15.12 12.0128 15.02 11.7728 14.82C11.5462 14.6067 11.4328 14.3067 11.4328 13.92V6.18C11.4328 5.80667 11.5462 5.52 11.7728 5.32C12.0128 5.12 12.3062 5.02 12.6528 5.02C12.9995 5.02 13.2795 5.12 13.4928 5.32C13.7062 5.50667 13.8128 5.78 13.8128 6.14V6.94C14.0662 6.35333 14.4395 5.9 14.9328 5.58C15.4395 5.26 15.9995 5.08 16.6128 5.04L16.8928 5.02Z" fill="#0056D6"/>
<path d="M26.6338 12.32C26.8604 12.32 27.0404 12.4067 27.1738 12.58C27.3204 12.7533 27.3938 12.9867 27.3938 13.28C27.3938 13.6933 27.1471 14.04 26.6538 14.32C26.2004 14.5733 25.6871 14.78 25.1138 14.94C24.5404 15.0867 23.9938 15.16 23.4738 15.16C21.9004 15.16 20.6538 14.7067 19.7338 13.8C18.8138 12.8933 18.3538 11.6533 18.3538 10.08C18.3538 9.08 18.5538 8.19334 18.9538 7.42C19.3538 6.64667 19.9138 6.04667 20.6338 5.62C21.3671 5.19333 22.1938 4.98 23.1138 4.98C23.9938 4.98 24.7604 5.17333 25.4138 5.56C26.0671 5.94667 26.5738 6.49333 26.9338 7.2C27.2938 7.90667 27.4738 8.74 27.4738 9.7C27.4738 10.2733 27.2204 10.56 26.7138 10.56H20.8138C20.8938 11.48 21.1538 12.16 21.5938 12.6C22.0338 13.0267 22.6738 13.24 23.5138 13.24C23.9404 13.24 24.3138 13.1867 24.6338 13.08C24.9671 12.9733 25.3404 12.8267 25.7538 12.64C26.1538 12.4267 26.4471 12.32 26.6338 12.32ZM23.1738 6.74C22.4938 6.74 21.9471 6.95334 21.5338 7.38C21.1338 7.80667 20.8938 8.42 20.8138 9.22H25.3338C25.3071 8.40667 25.1071 7.79333 24.7338 7.38C24.3604 6.95334 23.8404 6.74 23.1738 6.74Z" fill="#0056D6"/>
<path d="M37.2588 12.32C37.4854 12.32 37.6654 12.4067 37.7988 12.58C37.9454 12.7533 38.0188 12.9867 38.0188 13.28C38.0188 13.6933 37.7721 14.04 37.2788 14.32C36.8254 14.5733 36.3121 14.78 35.7388 14.94C35.1654 15.0867 34.6188 15.16 34.0988 15.16C32.5254 15.16 31.2788 14.7067 30.3588 13.8C29.4388 12.8933 28.9788 11.6533 28.9788 10.08C28.9788 9.08 29.1788 8.19334 29.5788 7.42C29.9788 6.64667 30.5388 6.04667 31.2588 5.62C31.9921 5.19333 32.8188 4.98 33.7388 4.98C34.6188 4.98 35.3854 5.17333 36.0388 5.56C36.6921 5.94667 37.1988 6.49333 37.5588 7.2C37.9188 7.90667 38.0988 8.74 38.0988 9.7C38.0988 10.2733 37.8454 10.56 37.3388 10.56H31.4388C31.5188 11.48 31.7788 12.16 32.2188 12.6C32.6588 13.0267 33.2988 13.24 34.1388 13.24C34.5654 13.24 34.9388 13.1867 35.2588 13.08C35.5921 12.9733 35.9654 12.8267 36.3788 12.64C36.7788 12.4267 37.0721 12.32 37.2588 12.32ZM33.7988 6.74C33.1188 6.74 32.5721 6.95334 32.1588 7.38C31.7588 7.80667 31.5188 8.42 31.4388 9.22H35.9588C35.9321 8.40667 35.7321 7.79333 35.3588 7.38C34.9854 6.95334 34.4654 6.74 33.7988 6.74Z" fill="#0056D6"/>
<path d="M41.2238 15C40.8238 15 40.5238 14.8933 40.3238 14.68C40.1371 14.4667 40.0571 14.1667 40.0838 13.78L41.0238 2.06C41.0504 1.67333 41.1838 1.36667 41.4238 1.14C41.6771 0.913335 41.9971 0.800001 42.3838 0.800001C42.7838 0.800001 43.0904 0.920001 43.3038 1.16C43.5171 1.38667 43.6104 1.69334 43.5838 2.08L42.7238 12.88H48.3238C48.6838 12.88 48.9638 12.9667 49.1638 13.14C49.3638 13.3133 49.4638 13.5533 49.4638 13.86C49.4638 14.62 49.0371 15 48.1838 15H41.2238Z" fill="#0056D6"/>
<path d="M55.6575 4.98C56.9775 4.98 57.9642 5.28 58.6175 5.88C59.2709 6.48 59.5975 7.38667 59.5975 8.6C59.5975 8.85333 59.5909 9.04667 59.5775 9.18L59.1975 13.96C59.1709 14.3333 59.0442 14.62 58.8175 14.82C58.6042 15.02 58.3109 15.12 57.9375 15.12C57.5909 15.12 57.3109 15.0133 57.0975 14.8C56.8975 14.5733 56.8109 14.2867 56.8375 13.94L56.8575 13.56C56.5909 14.0667 56.2175 14.46 55.7375 14.74C55.2575 15.02 54.7109 15.16 54.0975 15.16C53.4575 15.16 52.8775 15.04 52.3575 14.8C51.8509 14.5467 51.4509 14.2067 51.1575 13.78C50.8642 13.34 50.7175 12.8467 50.7175 12.3C50.7175 11.5533 50.9042 10.96 51.2775 10.52C51.6642 10.0667 52.2775 9.74 53.1175 9.54C53.9575 9.32667 55.0775 9.22 56.4775 9.22H57.1975L57.2175 8.84C57.2709 8.17334 57.1442 7.68 56.8375 7.36C56.5309 7.04 56.0442 6.88 55.3775 6.88C54.5909 6.88 53.6909 7.14 52.6775 7.66C52.5042 7.74 52.3375 7.78 52.1775 7.78C51.9375 7.78 51.7375 7.7 51.5775 7.54C51.4175 7.36667 51.3375 7.16 51.3375 6.92C51.3375 6.74667 51.3909 6.57334 51.4975 6.4C51.6042 6.21334 51.7575 6.06 51.9575 5.94C52.4375 5.64667 53.0042 5.41334 53.6575 5.24C54.3109 5.06667 54.9775 4.98 55.6575 4.98ZM54.7375 13.36C55.3642 13.36 55.8909 13.14 56.3175 12.7C56.7575 12.2467 57.0042 11.6733 57.0575 10.98L57.0975 10.54H56.5375C55.6842 10.54 55.0109 10.5867 54.5175 10.68C54.0375 10.7733 53.6909 10.9333 53.4775 11.16C53.2642 11.3733 53.1575 11.6667 53.1575 12.04C53.1575 12.44 53.2975 12.76 53.5775 13C53.8709 13.24 54.2575 13.36 54.7375 13.36Z" fill="#0056D6"/>
<path d="M67.9783 4.98C69.0716 4.98 69.8983 5.28 70.4583 5.88C71.0316 6.46667 71.3183 7.34 71.3183 8.5C71.3183 8.75333 71.3116 8.94667 71.2983 9.08L70.8983 13.92C70.8716 14.2933 70.7383 14.5867 70.4983 14.8C70.2583 15.0133 69.9516 15.12 69.5783 15.12C69.1916 15.12 68.8916 15.0133 68.6783 14.8C68.465 14.5867 68.3716 14.2933 68.3983 13.92L68.7983 9.18C68.905 7.7 68.3183 6.96 67.0383 6.96C66.305 6.96 65.7316 7.18 65.3183 7.62C64.905 8.06 64.665 8.67334 64.5983 9.46L64.2183 13.92C64.1916 14.2933 64.0583 14.5867 63.8183 14.8C63.5783 15.0133 63.2716 15.12 62.8983 15.12C62.5116 15.12 62.2116 15.0133 61.9983 14.8C61.7983 14.5867 61.705 14.2933 61.7183 13.92L62.3583 6.16C62.3716 5.81334 62.505 5.54 62.7583 5.34C63.0116 5.12667 63.325 5.02 63.6983 5.02C64.0583 5.02 64.3383 5.12 64.5383 5.32C64.7383 5.52 64.8183 5.78667 64.7783 6.12L64.7583 6.5C65.0916 6.02 65.5383 5.64667 66.0983 5.38C66.6583 5.11333 67.285 4.98 67.9783 4.98Z" fill="#0056D6"/>
<path d="M78.1175 15.16C77.1309 15.16 76.2642 14.9667 75.5175 14.58C74.7842 14.18 74.2108 13.62 73.7975 12.9C73.3975 12.18 73.1975 11.3467 73.1975 10.4C73.1975 9.30667 73.4109 8.35334 73.8375 7.54C74.2642 6.71334 74.8775 6.08 75.6775 5.64C76.4775 5.2 77.4175 4.98 78.4975 4.98C79.1375 4.98 79.7375 5.06 80.2975 5.22C80.8708 5.36667 81.3375 5.56667 81.6975 5.82C81.9909 6.00667 82.1375 6.3 82.1375 6.7C82.1375 6.98 82.0575 7.22667 81.8975 7.44C81.7509 7.64 81.5575 7.74 81.3175 7.74C81.1842 7.74 81.0375 7.7 80.8775 7.62C80.1575 7.16667 79.3975 6.94 78.5975 6.94C77.7042 6.94 77.0108 7.24 76.5175 7.84C76.0242 8.44 75.7775 9.28 75.7775 10.36C75.7775 11.2533 75.9975 11.9533 76.4375 12.46C76.8909 12.9533 77.5175 13.2 78.3175 13.2C78.7175 13.2 79.0842 13.1467 79.4175 13.04C79.7509 12.9333 80.1042 12.7667 80.4775 12.54C80.6508 12.4467 80.8109 12.4 80.9575 12.4C81.1842 12.4 81.3642 12.4867 81.4975 12.66C81.6309 12.8333 81.6975 13.04 81.6975 13.28C81.6975 13.4533 81.6575 13.6267 81.5775 13.8C81.4975 13.96 81.3775 14.1 81.2175 14.22C80.8442 14.5 80.3775 14.7267 79.8175 14.9C79.2575 15.0733 78.6909 15.16 78.1175 15.16Z" fill="#0056D6"/>
<path d="M84.3631 15.12C84.0031 15.12 83.7098 15.02 83.4831 14.82C83.2565 14.62 83.1565 14.32 83.1831 13.92L83.8231 6.18C83.8498 5.79333 83.9898 5.50667 84.2431 5.32C84.4965 5.12 84.8031 5.02 85.1631 5.02C85.5231 5.02 85.8098 5.12 86.0231 5.32C86.2498 5.50667 86.3498 5.79333 86.3231 6.18L85.6831 13.92C85.6565 14.32 85.5165 14.62 85.2631 14.82C85.0098 15.02 84.7098 15.12 84.3631 15.12ZM85.4031 3.24C84.9498 3.24 84.5898 3.12 84.3231 2.88C84.0565 2.62667 83.9231 2.3 83.9231 1.9C83.9231 1.5 84.0565 1.18 84.3231 0.940002C84.5898 0.700002 84.9498 0.580002 85.4031 0.580002C85.8431 0.580002 86.1965 0.700002 86.4631 0.940002C86.7431 1.18 86.8831 1.5 86.8831 1.9C86.8831 2.3 86.7498 2.62667 86.4831 2.88C86.2165 3.12 85.8565 3.24 85.4031 3.24Z" fill="#0056D6"/>
<path d="M94.5213 4.98C95.6146 4.98 96.4413 5.28 97.0013 5.88C97.5746 6.46667 97.8613 7.34 97.8613 8.5C97.8613 8.75333 97.8546 8.94667 97.8413 9.08L97.4413 13.92C97.4146 14.2933 97.2813 14.5867 97.0413 14.8C96.8013 15.0133 96.4946 15.12 96.1213 15.12C95.7346 15.12 95.4346 15.0133 95.2213 14.8C95.0079 14.5867 94.9146 14.2933 94.9413 13.92L95.3413 9.18C95.4479 7.7 94.8613 6.96 93.5813 6.96C92.8479 6.96 92.2746 7.18 91.8613 7.62C91.4479 8.06 91.2079 8.67334 91.1413 9.46L90.7613 13.92C90.7346 14.2933 90.6013 14.5867 90.3613 14.8C90.1213 15.0133 89.8146 15.12 89.4413 15.12C89.0546 15.12 88.7546 15.0133 88.5413 14.8C88.3413 14.5867 88.2479 14.2933 88.2613 13.92L88.9013 6.16C88.9146 5.81334 89.0479 5.54 89.3013 5.34C89.5546 5.12667 89.8679 5.02 90.2413 5.02C90.6013 5.02 90.8813 5.12 91.0813 5.32C91.2813 5.52 91.3613 5.78667 91.3213 6.12L91.3013 6.5C91.6346 6.02 92.0813 5.64667 92.6413 5.38C93.2013 5.11333 93.8279 4.98 94.5213 4.98Z" fill="#0056D6"/>
<path d="M101.18 15.12C100.754 15.12 100.4 14.98 100.12 14.7C99.8405 14.4067 99.7005 14.0467 99.7005 13.62C99.7005 13.1933 99.8405 12.84 100.12 12.56C100.4 12.2667 100.754 12.12 101.18 12.12C101.607 12.12 101.96 12.2667 102.24 12.56C102.52 12.84 102.66 13.1933 102.66 13.62C102.66 14.0467 102.52 14.4067 102.24 14.7C101.96 14.98 101.607 15.12 101.18 15.12Z" fill="#0056D6"/>
<path d="M106.101 15.12C105.741 15.12 105.448 15.02 105.221 14.82C104.995 14.62 104.895 14.32 104.921 13.92L105.561 6.18C105.588 5.79333 105.728 5.50667 105.981 5.32C106.235 5.12 106.541 5.02 106.901 5.02C107.261 5.02 107.548 5.12 107.761 5.32C107.988 5.50667 108.088 5.79333 108.061 6.18L107.421 13.92C107.395 14.32 107.255 14.62 107.001 14.82C106.748 15.02 106.448 15.12 106.101 15.12ZM107.141 3.24C106.688 3.24 106.328 3.12 106.061 2.88C105.795 2.62667 105.661 2.3 105.661 1.9C105.661 1.5 105.795 1.18 106.061 0.940002C106.328 0.700002 106.688 0.580002 107.141 0.580002C107.581 0.580002 107.935 0.700002 108.201 0.940002C108.481 1.18 108.621 1.5 108.621 1.9C108.621 2.3 108.488 2.62667 108.221 2.88C107.955 3.12 107.595 3.24 107.141 3.24Z" fill="#0056D6"/>
<path d="M114.7 15.16C113.7 15.16 112.826 14.9667 112.08 14.58C111.346 14.18 110.78 13.62 110.38 12.9C109.98 12.1667 109.78 11.32 109.78 10.36C109.78 9.26667 109.986 8.31333 110.4 7.5C110.826 6.68667 111.42 6.06667 112.18 5.64C112.953 5.2 113.846 4.98 114.86 4.98C115.86 4.98 116.726 5.18 117.46 5.58C118.206 5.96667 118.78 6.52667 119.18 7.26C119.58 7.98 119.78 8.82 119.78 9.78C119.78 10.8733 119.566 11.8267 119.14 12.64C118.726 13.4533 118.133 14.08 117.36 14.52C116.6 14.9467 115.713 15.16 114.7 15.16ZM114.7 13.22C115.553 13.22 116.193 12.9 116.62 12.26C117.06 11.6067 117.28 10.7533 117.28 9.7C117.28 8.78 117.073 8.08667 116.66 7.62C116.26 7.14 115.666 6.9 114.88 6.9C114.026 6.9 113.38 7.22667 112.94 7.88C112.5 8.52 112.28 9.36667 112.28 10.42C112.28 12.2867 113.086 13.22 114.7 13.22Z" fill="#0056D6"/>
</svg>
