<svg width="120" height="15" viewBox="0 0 120 15" fill="none" xmlns="http://www.w3.org/2000/svg">
<path d="M1.28 14.54C0.893333 14.54 0.58 14.42 0.34 14.18C0.113333 13.94 0 13.6267 0 13.24V1.54C0 1.15333 0.106667 0.853333 0.32 0.64C0.546667 0.426666 0.853333 0.319999 1.24 0.319999H8.26C9.07333 0.319999 9.48 0.666666 9.48 1.36C9.48 2.04 9.07333 2.38 8.26 2.38H2.54V6.22H7.86C8.67333 6.22 9.08 6.56667 9.08 7.26C9.08 7.94 8.67333 8.28 7.86 8.28H2.54V13.24C2.54 13.6267 2.42667 13.94 2.2 14.18C1.97333 14.42 1.66667 14.54 1.28 14.54Z" fill="white"/>
<path d="M16.3728 4.44C16.7195 4.41333 16.9928 4.48667 17.1928 4.66C17.3928 4.83333 17.4928 5.09333 17.4928 5.44C17.4928 5.8 17.4061 6.06667 17.2328 6.24C17.0595 6.41333 16.7461 6.52667 16.2928 6.58L15.6928 6.64C14.9061 6.72 14.3261 6.98667 13.9528 7.44C13.5928 7.89333 13.4128 8.46 13.4128 9.14V13.34C13.4128 13.7267 13.2928 14.0267 13.0528 14.24C12.8128 14.44 12.5128 14.54 12.1528 14.54C11.7928 14.54 11.4928 14.44 11.2528 14.24C11.0261 14.0267 10.9128 13.7267 10.9128 13.34V5.6C10.9128 5.22667 11.0261 4.94 11.2528 4.74C11.4928 4.54 11.7861 4.44 12.1328 4.44C12.4795 4.44 12.7595 4.54 12.9728 4.74C13.1861 4.92667 13.2928 5.2 13.2928 5.56V6.36C13.5461 5.77333 13.9195 5.32 14.4128 5C14.9195 4.68 15.4795 4.5 16.0928 4.46L16.3728 4.44Z" fill="white"/>
<path d="M26.1138 11.74C26.3404 11.74 26.5204 11.8267 26.6538 12C26.8004 12.1733 26.8738 12.4067 26.8738 12.7C26.8738 13.1133 26.6271 13.46 26.1338 13.74C25.6804 13.9933 25.1671 14.2 24.5938 14.36C24.0204 14.5067 23.4738 14.58 22.9538 14.58C21.3804 14.58 20.1338 14.1267 19.2138 13.22C18.2938 12.3133 17.8337 11.0733 17.8337 9.5C17.8337 8.5 18.0338 7.61333 18.4338 6.84C18.8337 6.06667 19.3938 5.46667 20.1138 5.04C20.8471 4.61333 21.6737 4.4 22.5938 4.4C23.4737 4.4 24.2404 4.59333 24.8938 4.98C25.5471 5.36667 26.0537 5.91333 26.4137 6.62C26.7738 7.32667 26.9538 8.16 26.9538 9.12C26.9538 9.69333 26.7004 9.98 26.1938 9.98H20.2938C20.3738 10.9 20.6337 11.58 21.0737 12.02C21.5138 12.4467 22.1537 12.66 22.9937 12.66C23.4204 12.66 23.7938 12.6067 24.1138 12.5C24.4471 12.3933 24.8204 12.2467 25.2337 12.06C25.6337 11.8467 25.9271 11.74 26.1138 11.74ZM22.6537 6.16C21.9737 6.16 21.4271 6.37333 21.0138 6.8C20.6138 7.22667 20.3738 7.84 20.2938 8.64H24.8138C24.7871 7.82667 24.5871 7.21333 24.2138 6.8C23.8404 6.37333 23.3204 6.16 22.6537 6.16Z" fill="white"/>
<path d="M36.7388 11.74C36.9654 11.74 37.1454 11.8267 37.2788 12C37.4254 12.1733 37.4987 12.4067 37.4987 12.7C37.4987 13.1133 37.2521 13.46 36.7588 13.74C36.3054 13.9933 35.7921 14.2 35.2188 14.36C34.6454 14.5067 34.0988 14.58 33.5788 14.58C32.0054 14.58 30.7588 14.1267 29.8388 13.22C28.9188 12.3133 28.4587 11.0733 28.4587 9.5C28.4587 8.5 28.6588 7.61333 29.0588 6.84C29.4587 6.06667 30.0188 5.46667 30.7388 5.04C31.4721 4.61333 32.2988 4.4 33.2188 4.4C34.0988 4.4 34.8654 4.59333 35.5187 4.98C36.1721 5.36667 36.6787 5.91333 37.0387 6.62C37.3988 7.32667 37.5788 8.16 37.5788 9.12C37.5788 9.69333 37.3254 9.98 36.8188 9.98H30.9188C30.9988 10.9 31.2587 11.58 31.6987 12.02C32.1387 12.4467 32.7788 12.66 33.6188 12.66C34.0454 12.66 34.4188 12.6067 34.7388 12.5C35.0721 12.3933 35.4454 12.2467 35.8587 12.06C36.2588 11.8467 36.5521 11.74 36.7388 11.74ZM33.2788 6.16C32.5988 6.16 32.0521 6.37333 31.6388 6.8C31.2388 7.22667 30.9988 7.84 30.9188 8.64H35.4388C35.4121 7.82667 35.2121 7.21333 34.8387 6.8C34.4654 6.37333 33.9454 6.16 33.2788 6.16Z" fill="white"/>
<path d="M40.7038 14.42C40.3037 14.42 40.0037 14.3133 39.8037 14.1C39.6171 13.8867 39.5371 13.5867 39.5638 13.2L40.5037 1.48C40.5304 1.09333 40.6637 0.786666 40.9038 0.56C41.1571 0.333333 41.4771 0.22 41.8638 0.22C42.2638 0.22 42.5704 0.34 42.7837 0.58C42.9971 0.806667 43.0904 1.11333 43.0638 1.5L42.2038 12.3H47.8037C48.1637 12.3 48.4437 12.3867 48.6437 12.56C48.8438 12.7333 48.9437 12.9733 48.9437 13.28C48.9437 14.04 48.5171 14.42 47.6637 14.42H40.7038Z" fill="white"/>
<path d="M55.1375 4.4C56.4575 4.4 57.4442 4.7 58.0975 5.3C58.7508 5.9 59.0775 6.80667 59.0775 8.02C59.0775 8.27333 59.0708 8.46667 59.0575 8.6L58.6775 13.38C58.6508 13.7533 58.5242 14.04 58.2975 14.24C58.0842 14.44 57.7908 14.54 57.4175 14.54C57.0708 14.54 56.7908 14.4333 56.5775 14.22C56.3775 13.9933 56.2908 13.7067 56.3175 13.36L56.3375 12.98C56.0708 13.4867 55.6975 13.88 55.2175 14.16C54.7375 14.44 54.1908 14.58 53.5775 14.58C52.9375 14.58 52.3575 14.46 51.8375 14.22C51.3308 13.9667 50.9308 13.6267 50.6375 13.2C50.3442 12.76 50.1975 12.2667 50.1975 11.72C50.1975 10.9733 50.3842 10.38 50.7575 9.94C51.1442 9.48667 51.7575 9.16 52.5975 8.96C53.4375 8.74667 54.5575 8.64 55.9575 8.64H56.6775L56.6975 8.26C56.7508 7.59333 56.6242 7.1 56.3175 6.78C56.0108 6.46 55.5242 6.3 54.8575 6.3C54.0708 6.3 53.1708 6.56 52.1575 7.08C51.9842 7.16 51.8175 7.2 51.6575 7.2C51.4175 7.2 51.2175 7.12 51.0575 6.96C50.8975 6.78667 50.8175 6.58 50.8175 6.34C50.8175 6.16667 50.8708 5.99333 50.9775 5.82C51.0842 5.63333 51.2375 5.48 51.4375 5.36C51.9175 5.06667 52.4842 4.83333 53.1375 4.66C53.7908 4.48667 54.4575 4.4 55.1375 4.4ZM54.2175 12.78C54.8442 12.78 55.3708 12.56 55.7975 12.12C56.2375 11.6667 56.4842 11.0933 56.5375 10.4L56.5775 9.96H56.0175C55.1642 9.96 54.4908 10.0067 53.9975 10.1C53.5175 10.1933 53.1708 10.3533 52.9575 10.58C52.7442 10.7933 52.6375 11.0867 52.6375 11.46C52.6375 11.86 52.7775 12.18 53.0575 12.42C53.3508 12.66 53.7375 12.78 54.2175 12.78Z" fill="white"/>
<path d="M67.4583 4.4C68.5516 4.4 69.3783 4.7 69.9383 5.3C70.5116 5.88667 70.7983 6.76 70.7983 7.92C70.7983 8.17333 70.7916 8.36667 70.7783 8.5L70.3783 13.34C70.3516 13.7133 70.2183 14.0067 69.9783 14.22C69.7383 14.4333 69.4316 14.54 69.0583 14.54C68.6716 14.54 68.3716 14.4333 68.1583 14.22C67.9449 14.0067 67.8516 13.7133 67.8783 13.34L68.2783 8.6C68.3849 7.12 67.7983 6.38 66.5183 6.38C65.785 6.38 65.2116 6.6 64.7983 7.04C64.3849 7.48 64.1449 8.09333 64.0783 8.88L63.6983 13.34C63.6716 13.7133 63.5383 14.0067 63.2983 14.22C63.0583 14.4333 62.7516 14.54 62.3783 14.54C61.9916 14.54 61.6916 14.4333 61.4783 14.22C61.2783 14.0067 61.1849 13.7133 61.1983 13.34L61.8383 5.58C61.8516 5.23333 61.9849 4.96 62.2383 4.76C62.4916 4.54667 62.8049 4.44 63.1783 4.44C63.5383 4.44 63.8183 4.54 64.0183 4.74C64.2183 4.94 64.2983 5.20667 64.2583 5.54L64.2383 5.92C64.5716 5.44 65.0183 5.06667 65.5783 4.8C66.1383 4.53333 66.7649 4.4 67.4583 4.4Z" fill="white"/>
<path d="M77.5975 14.58C76.6108 14.58 75.7442 14.3867 74.9975 14C74.2642 13.6 73.6908 13.04 73.2775 12.32C72.8775 11.6 72.6775 10.7667 72.6775 9.82C72.6775 8.72667 72.8908 7.77333 73.3175 6.96C73.7442 6.13333 74.3575 5.5 75.1575 5.06C75.9575 4.62 76.8975 4.4 77.9775 4.4C78.6175 4.4 79.2175 4.48 79.7775 4.64C80.3508 4.78667 80.8175 4.98667 81.1775 5.24C81.4708 5.42667 81.6175 5.72 81.6175 6.12C81.6175 6.4 81.5375 6.64667 81.3775 6.86C81.2308 7.06 81.0375 7.16 80.7975 7.16C80.6642 7.16 80.5175 7.12 80.3575 7.04C79.6375 6.58667 78.8775 6.36 78.0775 6.36C77.1842 6.36 76.4908 6.66 75.9975 7.26C75.5042 7.86 75.2575 8.7 75.2575 9.78C75.2575 10.6733 75.4775 11.3733 75.9175 11.88C76.3708 12.3733 76.9975 12.62 77.7975 12.62C78.1975 12.62 78.5642 12.5667 78.8975 12.46C79.2308 12.3533 79.5842 12.1867 79.9575 11.96C80.1308 11.8667 80.2908 11.82 80.4375 11.82C80.6642 11.82 80.8442 11.9067 80.9775 12.08C81.1108 12.2533 81.1775 12.46 81.1775 12.7C81.1775 12.8733 81.1375 13.0467 81.0575 13.22C80.9775 13.38 80.8575 13.52 80.6975 13.64C80.3242 13.92 79.8575 14.1467 79.2975 14.32C78.7375 14.4933 78.1708 14.58 77.5975 14.58Z" fill="white"/>
<path d="M83.8431 14.54C83.4831 14.54 83.1898 14.44 82.9631 14.24C82.7365 14.04 82.6365 13.74 82.6631 13.34L83.3031 5.6C83.3298 5.21333 83.4698 4.92667 83.7231 4.74C83.9765 4.54 84.2831 4.44 84.6431 4.44C85.0031 4.44 85.2898 4.54 85.5031 4.74C85.7298 4.92667 85.8298 5.21333 85.8031 5.6L85.1631 13.34C85.1365 13.74 84.9965 14.04 84.7431 14.24C84.4898 14.44 84.1898 14.54 83.8431 14.54ZM84.8831 2.66C84.4298 2.66 84.0698 2.54 83.8031 2.3C83.5365 2.04667 83.4031 1.72 83.4031 1.32C83.4031 0.919999 83.5365 0.599999 83.8031 0.36C84.0698 0.12 84.4298 0 84.8831 0C85.3231 0 85.6765 0.12 85.9431 0.36C86.2231 0.599999 86.3631 0.919999 86.3631 1.32C86.3631 1.72 86.2298 2.04667 85.9631 2.3C85.6965 2.54 85.3365 2.66 84.8831 2.66Z" fill="white"/>
<path d="M94.0013 4.4C95.0946 4.4 95.9212 4.7 96.4812 5.3C97.0546 5.88667 97.3412 6.76 97.3412 7.92C97.3412 8.17333 97.3346 8.36667 97.3213 8.5L96.9212 13.34C96.8946 13.7133 96.7612 14.0067 96.5212 14.22C96.2812 14.4333 95.9746 14.54 95.6012 14.54C95.2146 14.54 94.9146 14.4333 94.7012 14.22C94.4879 14.0067 94.3946 13.7133 94.4212 13.34L94.8213 8.6C94.9279 7.12 94.3412 6.38 93.0612 6.38C92.3279 6.38 91.7546 6.6 91.3412 7.04C90.9279 7.48 90.6879 8.09333 90.6212 8.88L90.2412 13.34C90.2146 13.7133 90.0812 14.0067 89.8412 14.22C89.6012 14.4333 89.2946 14.54 88.9212 14.54C88.5346 14.54 88.2346 14.4333 88.0212 14.22C87.8213 14.0067 87.7279 13.7133 87.7412 13.34L88.3812 5.58C88.3946 5.23333 88.5279 4.96 88.7812 4.76C89.0346 4.54667 89.3479 4.44 89.7213 4.44C90.0813 4.44 90.3613 4.54 90.5612 4.74C90.7612 4.94 90.8412 5.20667 90.8012 5.54L90.7812 5.92C91.1146 5.44 91.5612 5.06667 92.1212 4.8C92.6812 4.53333 93.3079 4.4 94.0013 4.4Z" fill="white"/>
<path d="M100.66 14.54C100.234 14.54 99.8805 14.4 99.6005 14.12C99.3205 13.8267 99.1805 13.4667 99.1805 13.04C99.1805 12.6133 99.3205 12.26 99.6005 11.98C99.8805 11.6867 100.234 11.54 100.66 11.54C101.087 11.54 101.44 11.6867 101.72 11.98C102 12.26 102.14 12.6133 102.14 13.04C102.14 13.4667 102 13.8267 101.72 14.12C101.44 14.4 101.087 14.54 100.66 14.54Z" fill="white"/>
<path d="M105.581 14.54C105.221 14.54 104.928 14.44 104.701 14.24C104.475 14.04 104.375 13.74 104.401 13.34L105.041 5.6C105.068 5.21333 105.208 4.92667 105.461 4.74C105.715 4.54 106.021 4.44 106.381 4.44C106.741 4.44 107.028 4.54 107.241 4.74C107.468 4.92667 107.568 5.21333 107.541 5.6L106.901 13.34C106.875 13.74 106.735 14.04 106.481 14.24C106.228 14.44 105.928 14.54 105.581 14.54ZM106.621 2.66C106.168 2.66 105.808 2.54 105.541 2.3C105.275 2.04667 105.141 1.72 105.141 1.32C105.141 0.919999 105.275 0.599999 105.541 0.36C105.808 0.12 106.168 0 106.621 0C107.061 0 107.415 0.12 107.681 0.36C107.961 0.599999 108.101 0.919999 108.101 1.32C108.101 1.72 107.968 2.04667 107.701 2.3C107.435 2.54 107.075 2.66 106.621 2.66Z" fill="white"/>
<path d="M114.18 14.58C113.18 14.58 112.306 14.3867 111.56 14C110.826 13.6 110.26 13.04 109.86 12.32C109.46 11.5867 109.26 10.74 109.26 9.78C109.26 8.68667 109.466 7.73333 109.88 6.92C110.306 6.10667 110.9 5.48667 111.66 5.06C112.433 4.62 113.326 4.4 114.34 4.4C115.34 4.4 116.206 4.6 116.94 5C117.686 5.38667 118.26 5.94667 118.66 6.68C119.06 7.4 119.26 8.24 119.26 9.2C119.26 10.2933 119.046 11.2467 118.62 12.06C118.206 12.8733 117.613 13.5 116.84 13.94C116.08 14.3667 115.193 14.58 114.18 14.58ZM114.18 12.64C115.033 12.64 115.673 12.32 116.1 11.68C116.54 11.0267 116.76 10.1733 116.76 9.12C116.76 8.2 116.553 7.50667 116.14 7.04C115.74 6.56 115.146 6.32 114.36 6.32C113.506 6.32 112.86 6.64667 112.42 7.3C111.98 7.94 111.76 8.78667 111.76 9.84C111.76 11.7067 112.566 12.64 114.18 12.64Z" fill="white"/>
</svg>
